<?xml version="1.0" standalone="no"?><!DOCTYPE svg PUBLIC "-//W3C//DTD SVG 1.1//EN" "http://www.w3.org/Graphics/SVG/1.1/DTD/svg11.dtd"><svg t="1572593188480" class="icon" viewBox="0 0 1024 1024" version="1.1" xmlns="http://www.w3.org/2000/svg" p-id="2708" xmlns:xlink="http://www.w3.org/1999/xlink" width="64" height="64"><defs><style type="text/css"></style></defs><path d="M905.46506917 279.00796624l-160.29076442-160.40675504 82.90844469-82.96644002c27.63062487-27.64719497 71.85619475-27.64719497 93.96069465 0l66.33006978 66.37978005c27.63890992 27.65548 27.63890992 71.90590501 0 94.03526006L905.46506917 279.00796624 905.46506917 279.00796624zM441.18772091 743.61671629L280.89695649 583.20996125l436.63843834-431.41057499 160.29076442 160.39018496L441.18772091 743.61671629 441.18772091 743.61671629zM153.779512 876.35970629l99.48681963-259.95985502 160.29076442 160.39847L153.779512 876.35970629 153.779512 876.35970629zM970.3866813 931.67066629c22.12106998 0 38.70772995 16.58665997 38.70772995 38.70772997 0 22.12935504-16.58665997 38.72430004-38.70772995 38.72430004L53.6133187 1009.1026963c-24.23375645 0-38.71601499-16.59494501-38.716015-38.72430004 0-22.12106998 16.58665997-38.70772995 38.716015-38.70772997L970.3866813 931.67066629 970.3866813 931.67066629zM970.02213933 931.67066629" p-id="2709"></path></svg>