<?xml version="1.0" standalone="no"?><!DOCTYPE svg PUBLIC "-//W3C//DTD SVG 1.1//EN" "http://www.w3.org/Graphics/SVG/1.1/DTD/svg11.dtd"><svg t="1574992764905" class="icon" viewBox="0 0 1092 1024" version="1.1" xmlns="http://www.w3.org/2000/svg" p-id="911" xmlns:xlink="http://www.w3.org/1999/xlink" width="68.25" height="64"><defs><style type="text/css"></style></defs><path d="M921.6 1024H160.426667C71.68 1024 0 952.32 0 863.573333V160.426667C0 71.68 71.68 0 160.426667 0h610.986666c20.48 0 34.133333 13.653333 34.133334 34.133333s-13.653333 34.133333-34.133334 34.133334H160.426667C109.226667 68.266667 68.266667 109.226667 68.266667 160.426667v699.733333C68.266667 914.773333 109.226667 955.733333 160.426667 955.733333H921.6c51.2 0 92.16-40.96 92.16-92.16V337.92c0-20.48 13.653333-34.133333 34.133333-34.133333s34.133333 13.653333 34.133334 34.133333v525.653333c3.413333 88.746667-71.68 160.426667-160.426667 160.426667z" p-id="912"></path><path d="M453.973333 658.773333c-10.24 0-17.066667-3.413333-23.893333-10.24-13.653333-13.653333-13.653333-34.133333 0-47.786666L1034.24 23.893333c13.653333-13.653333 34.133333-13.653333 47.786667 0 13.653333 13.653333 13.653333 34.133333 0 47.786667L477.866667 648.533333c-6.826667 6.826667-13.653333 10.24-23.893334 10.24z" p-id="913"></path></svg>