<?xml version="1.0" standalone="no"?><!DOCTYPE svg PUBLIC "-//W3C//DTD SVG 1.1//EN" "http://www.w3.org/Graphics/SVG/1.1/DTD/svg11.dtd"><svg t="1586654029190" class="icon" viewBox="0 0 1191 1024" version="1.1" xmlns="http://www.w3.org/2000/svg" p-id="3244" xmlns:xlink="http://www.w3.org/1999/xlink" width="37.21875" height="32"><defs><style type="text/css"></style></defs><path d="M160.805236 106.198109C165.813527 44.125091 231.982545 0 308.670836 0h199.735855c76.651055 0 142.857309 44.125091 147.8656 106.198109h395.822545c77.023418 0 139.4688 62.594327 139.4688 139.822546V884.177455c0 77.228218-62.445382 139.822545-139.450181 139.822545H139.450182C62.445382 1024 0 961.405673 0 884.177455V246.020655c0-77.228218 62.445382-139.822545 139.450182-139.822546h21.355054z m69.073455 0h357.301527c-6.609455-19.456-37.794909-37.925236-78.773527-37.925236H308.670836c-40.997236 0-72.164073 18.469236-78.773527 37.925236zM139.450182 174.452364a71.456582 71.456582 0 0 0-71.363491 71.568291V884.177455a71.456582 71.456582 0 0 0 71.363491 71.549672h912.663273a71.456582 71.456582 0 0 0 71.36349-71.549672V246.020655A71.456582 71.456582 0 0 0 1052.113455 174.452364H139.450182z m469.699491 690.250472c-159.073745 0-288.1536-128.111709-288.1536-286.347636 0-158.198691 129.079855-286.329018 288.1536-286.329018s288.172218 128.130327 288.172218 286.347636c0 158.217309-129.098473 286.347636-288.172218 286.347637z m0-68.254254c121.632582 0 220.066909-97.708218 220.066909-218.074764 0-120.366545-98.434327-218.074764-220.066909-218.074763-121.613964 0-220.066909 97.708218-220.066909 218.074763 0 120.366545 98.452945 218.074764 220.066909 218.074764zM989.742545 383.050473a68.179782 68.179782 0 0 1-68.08669-68.272873 68.179782 68.179782 0 0 1 68.08669-68.254255 68.179782 68.179782 0 0 1 68.086691 68.254255 68.179782 68.179782 0 0 1-68.086691 68.272873z" p-id="3245"></path></svg>