<?xml version="1.0" standalone="no"?><!DOCTYPE svg PUBLIC "-//W3C//DTD SVG 1.1//EN" "http://www.w3.org/Graphics/SVG/1.1/DTD/svg11.dtd"><svg t="1585452167142" class="icon" viewBox="0 0 1024 1024" version="1.1" xmlns="http://www.w3.org/2000/svg" p-id="2852" xmlns:xlink="http://www.w3.org/1999/xlink" width="32" height="32"><defs><style type="text/css"></style></defs><path d="M512 0a512 512 0 0 0-512 512 512 512 0 0 0 512 512 512 512 0 0 0 512-512 512 512 0 0 0-512-512z" p-id="2853"></path><path d="M717.165714 306.176a35.986286 35.986286 0 0 0-50.834285 0.146286L512 461.019429 357.668571 306.322286a35.986286 35.986286 0 0 0-50.980571 50.761143L461.165714 512 306.688 666.916571a35.986286 35.986286 0 0 0 50.980571 50.761143L512 562.980571l154.331429 154.843429a35.693714 35.693714 0 0 0 50.834285 0.073143 35.986286 35.986286 0 0 0 0.146286-50.907429L562.834286 512l154.331428-154.916571a35.913143 35.913143 0 0 0 0-50.907429z" fill="#FFFFFF" p-id="2854"></path></svg>