<?xml version="1.0" standalone="no"?><!DOCTYPE svg PUBLIC "-//W3C//DTD SVG 1.1//EN" "http://www.w3.org/Graphics/SVG/1.1/DTD/svg11.dtd"><svg t="1586269589363" class="icon" viewBox="0 0 1024 1024" version="1.1" xmlns="http://www.w3.org/2000/svg" p-id="5512" xmlns:xlink="http://www.w3.org/1999/xlink" width="32" height="32"><defs><style type="text/css"></style></defs><path d="M512 0C228.693333 0 0 228.693333 0 512s228.693333 512 512 512 512-228.693333 512-512S795.306667 0 512 0z m334.506667 406.186667l-191.146667 150.186666 61.44 225.28c3.413333 6.826667 0 13.653333-6.826667 17.066667-3.413333 3.413333-6.826667 3.413333-10.24 3.413333-3.413333 0-6.826667 0-10.24-3.413333L512 686.08l-177.493333 112.64c-6.826667 3.413333-13.653333 3.413333-20.48 0s-6.826667-10.24-6.826667-17.066667l54.613333-225.28-184.32-150.186666c-6.826667-3.413333-6.826667-13.653333-6.826666-20.48s10.24-10.24 17.066666-10.24h228.693334l81.92-194.56c6.826667-13.653333 27.306667-13.653333 30.72 0l81.92 194.56h228.693333c6.826667 0 13.653333 3.413333 17.066667 10.24-3.413333 6.826667-3.413333 17.066667-10.24 20.48z" p-id="5513"></path></svg>