<?xml version="1.0" standalone="no"?><!DOCTYPE svg PUBLIC "-//W3C//DTD SVG 1.1//EN" "http://www.w3.org/Graphics/SVG/1.1/DTD/svg11.dtd"><svg t="1572246626292" class="icon" viewBox="0 0 1024 1024" version="1.1" xmlns="http://www.w3.org/2000/svg" p-id="1157" xmlns:xlink="http://www.w3.org/1999/xlink" width="48" height="48"><defs><style type="text/css"></style></defs><path d="M229.12 563.2l0 301.696 178.56 0L407.68 711.68c0-32.896 26.624-59.52 59.52-59.52l90.368 0c32.896 0 59.52 26.624 59.52 59.52l0 153.088 178.56 0L795.648 563.2 512.256 262.016 229.12 563.2z" p-id="1158"></path><path d="M555.776 160.896c-11.776-11.776-27.392-18.176-44.032-18.176-16.64 0-32.256 6.528-44.544 18.816L77.184 575.36l72.832 0L505.344 198.4c2.304-2.304 5.12-2.688 6.528-2.688 1.408 0 4.096 0.384 6.016 2.176l356.096 377.472 72.832 0L555.776 160.896z" p-id="1159"></path></svg>