<?xml version="1.0" standalone="no"?><!DOCTYPE svg PUBLIC "-//W3C//DTD SVG 1.1//EN" "http://www.w3.org/Graphics/SVG/1.1/DTD/svg11.dtd"><svg t="1586229885847" class="icon" viewBox="0 0 1024 1024" version="1.1" xmlns="http://www.w3.org/2000/svg" p-id="2904" xmlns:xlink="http://www.w3.org/1999/xlink" width="32" height="32"><defs><style type="text/css"></style></defs><path d="M959.872 128l0.128 0.128v767.776l-0.128 0.128H64.096l-0.128-0.128V128.128L64.096 128h895.776zM960 64H64C28.8 64 0 92.8 0 128v768c0 35.2 28.8 64 64 64h896c35.2 0 64-28.8 64-64V128c0-35.2-28.8-64-64-64z" p-id="2905"></path><path d="M832 288a96 96 0 1 1-192 0 96 96 0 0 1 192 0zM896 832H128v-128l224-384 256 320h64l224-192z" p-id="2906"></path></svg>