<?xml version="1.0" standalone="no"?><!DOCTYPE svg PUBLIC "-//W3C//DTD SVG 1.1//EN" "http://www.w3.org/Graphics/SVG/1.1/DTD/svg11.dtd"><svg t="1572593155355" class="icon" viewBox="0 0 1024 1024" version="1.1" xmlns="http://www.w3.org/2000/svg" p-id="1908" xmlns:xlink="http://www.w3.org/1999/xlink" width="64" height="64"><defs><style type="text/css"></style></defs><path d="M796.78547437 343.72297008h-48.0791514V247.52583111A240.51226548 240.51226548 0 0 0 508.31056592 7.13007408a240.51226548 240.51226548 0 0 0-240.39575703 240.39575703v96.19713897H219.75798518A96.43015585 96.43015585 0 0 0 123.63851852 439.88127289v480.79151408A96.43015585 96.43015585 0 0 0 219.79682133 1016.86992592h576.98865304a96.43015585 96.43015585 0 0 0 96.19713896-96.15830281V439.88127289a96.43015585 96.43015585 0 0 0-96.19713896-96.15830281zM508.31056592 776.47416889a96.43015585 96.43015585 0 0 1-96.15830281-96.19713897 96.43015585 96.43015585 0 0 1 96.15830281-96.15830281 96.43015585 96.43015585 0 0 1 96.15830283 96.15830281 96.43015585 96.43015585 0 0 1-96.15830283 96.19713897z m149.0531366-432.75119881h-298.10627319V247.52583111a149.16964503 149.16964503 0 0 1 149.05313659-149.05313659 149.16964503 149.16964503 0 0 1 149.0531366 149.05313659v96.19713897z" p-id="1909"></path></svg>