<?xml version="1.0" standalone="no"?><!DOCTYPE svg PUBLIC "-//W3C//DTD SVG 1.1//EN" "http://www.w3.org/Graphics/SVG/1.1/DTD/svg11.dtd"><svg t="1572244399941" class="icon" viewBox="0 0 1025 1024" version="1.1" xmlns="http://www.w3.org/2000/svg" p-id="2368" xmlns:xlink="http://www.w3.org/1999/xlink" width="48.046875" height="48"><defs><style type="text/css"></style></defs><path d="M512.708124 287.609417c-123.989919 0-224.503147 86.155219-224.503147 192.428637 0 65.209164 37.932937 122.736369 95.817276 157.539013l-1.011027 74.382081 75.489298-45.37442c17.391089 3.703345 35.481096 5.884011 54.208623 5.884011 123.989919 0 224.503147-86.153172 224.503147-192.431707C737.211271 373.764636 636.698043 287.609417 512.708124 287.609417zM592.887234 560.217165 432.52799 560.217165c-8.856715 0-16.036231-7.17747-16.036231-16.035208 0-8.857738 7.179516-16.035208 16.036231-16.035208l160.359244 0c8.855692 0 16.036231 7.17747 16.036231 16.035208C608.923466 553.039695 601.74395 560.217165 592.887234 560.217165zM624.959697 464.001823 400.45655 464.001823c-8.856715 0-16.036231-7.179516-16.036231-16.035208 0-8.857738 7.179516-16.037255 16.036231-16.037255l224.503147 0c8.855692 0 16.036231 7.179516 16.036231 16.037255C640.995929 456.822306 633.815389 464.001823 624.959697 464.001823z" p-id="2369"></path><path d="M511.684818 0.426719c-282.59624 0-511.684822 229.089605-511.684822 511.684822s229.089605 511.684822 511.684822 511.684822 511.684822-229.089605 511.684822-511.684822S794.280034 0.426719 511.684818 0.426719zM512.708124 704.540178c-16.408715 0-32.405037-1.483794-47.957245-4.059456l-112.403023 68.206428L352.347856 655.138024c-58.604746-41.145096-96.215342-104.238063-96.215342-175.100994 0-123.987872 114.873284-224.5011 256.57561-224.5011s256.574586 100.512205 256.574586 224.5011C769.28271 604.027973 654.41045 704.540178 512.708124 704.540178z" p-id="2370"></path></svg>