<?xml version="1.0" standalone="no"?><!DOCTYPE svg PUBLIC "-//W3C//DTD SVG 1.1//EN" "http://www.w3.org/Graphics/SVG/1.1/DTD/svg11.dtd"><svg t="1572593447760" class="icon" viewBox="0 0 1028 1024" version="1.1" xmlns="http://www.w3.org/2000/svg" p-id="6594" xmlns:xlink="http://www.w3.org/1999/xlink" width="64.25" height="64"><defs><style type="text/css"></style></defs><path d="M1024 196.266667c0-46.933333-38.4-89.6-89.6-89.6H810.666667v-34.133334c0-42.666667-29.866667-72.533333-68.266667-72.533333h-34.133333c-38.4 0-72.533333 29.866667-72.533334 72.533333v34.133334H388.266667v-34.133334C388.266667 29.866667 358.4 0 315.733333 0h-34.133333C243.2 0 213.333333 29.866667 213.333333 72.533333v34.133334H89.6C38.4 106.666667 0 145.066667 0 196.266667v72.533333c0 8.533333 4.266667 21.333333 8.533333 29.866667H0v635.733333C0 985.6 38.4 1024 89.6 1024H938.666667c46.933333 0 89.6-38.4 89.6-89.6V298.666667h-8.533334c0-8.533333 4.266667-21.333333 4.266667-34.133334V196.266667z m-354.133333-123.733334c0-21.333333 17.066667-34.133333 34.133333-34.133333h34.133333c21.333333 0 34.133333 17.066667 34.133334 34.133333V213.333333c0 21.333333-17.066667 34.133333-34.133334 34.133334h-34.133333c-21.333333 0-34.133333-17.066667-34.133333-34.133334V72.533333z m-422.4 0c0-21.333333 17.066667-34.133333 34.133333-34.133333h34.133333c21.333333 0 34.133333 17.066667 34.133334 34.133333V213.333333c0 21.333333-17.066667 34.133333-34.133334 34.133334h-34.133333c-17.066667 0-34.133333-17.066667-34.133333-34.133334V72.533333z m-213.333334 123.733334c0-29.866667 25.6-51.2 51.2-51.2h128V213.333333c0 38.4 29.866667 72.533333 72.533334 72.533334h34.133333c38.4 0 72.533333-29.866667 72.533333-72.533334V140.8H640V213.333333c0 38.4 29.866667 72.533333 72.533333 72.533334h34.133334c34.133333-4.266667 64-34.133333 64-72.533334V140.8h123.733333c29.866667 0 51.2 25.6 51.2 51.2v72.533333c0 29.866667-25.6 51.2-51.2 51.2H89.6C59.733333 315.733333 38.4 290.133333 38.4 264.533333V196.266667z m900.266667 793.6H89.6c-29.866667 0-51.2-25.6-51.2-51.2V337.066667c12.8 12.8 34.133333 17.066667 51.2 17.066666H938.666667c21.333333 0 38.4-8.533333 51.2-17.066666V938.666667c0 25.6-25.6 51.2-55.466667 51.2z"  p-id="6595"></path><path d="M584.533333 422.4H725.333333v34.133333h-140.8zM371.2 422.4H512v34.133333H371.2zM157.866667 422.4H298.666667v34.133333H157.866667zM371.2 601.6h42.666667v34.133333h-42.666667zM157.866667 601.6H298.666667v34.133333H157.866667zM371.2 776.533333h89.6v34.133334H371.2zM157.866667 776.533333H298.666667v34.133334H157.866667zM682.666667 806.4l-123.733334-98.133333-21.333333 29.866666 153.6 115.2 187.733333-260.266666-29.866666-21.333334z" p-id="6596"></path></svg>