<?xml version="1.0" standalone="no"?><!DOCTYPE svg PUBLIC "-//W3C//DTD SVG 1.1//EN" "http://www.w3.org/Graphics/SVG/1.1/DTD/svg11.dtd"><svg t="1572597949335" class="icon" viewBox="0 0 1024 1024" version="1.1" xmlns="http://www.w3.org/2000/svg" p-id="1150" xmlns:xlink="http://www.w3.org/1999/xlink" width="64" height="64"><defs><style type="text/css"></style></defs><path d="M170.2418963 152.40154075c0 26.94257778-11.89357037 47.57428148-35.92343705 61.77374814v711.30832593c0 4.85451852-1.82044445 9.10222222-5.33997036 12.62174815-3.51952592 3.51952592-7.76722963 5.33997037-12.62174814 5.33997036h-35.92343705c-4.85451852 0-9.10222222-1.82044445-12.62174815-5.33997036-3.51952592-3.51952592-5.33997037-7.76722963-5.33997037-12.62174815V214.17528889c-24.02986667-14.19946667-35.92343703-34.83117037-35.92343703-61.77374814 0-19.90352592 6.91768889-36.77297778 20.9957926-50.8510815 14.0781037-14.0781037 30.94755555-20.99579259 50.85108147-20.99579258s36.77297778 6.91768889 50.85108148 20.99579258c14.0781037 14.0781037 20.99579259 30.94755555 20.9957926 50.8510815zM997.45185185 188.44634075v428.77534814c0 9.34494815-2.3058963 16.50536297-6.91768888 21.60260741-4.73315555 5.09724445-12.01493333 10.19448889-22.20942222 15.53445925-80.70637037 43.44794075-149.64053333 65.17191111-207.40930372 65.17191112-22.81623703 0-45.99656297-4.12634075-69.41961481-12.37902222-23.42305185-8.25268148-43.69066667-17.23354075-60.9242074-26.94257778-17.23354075-9.70903703-38.83614815-18.6898963-64.92918519-26.94257778-25.97167408-8.25268148-52.67152592-12.37902222-80.09955555-12.37902222-71.96823703 0-158.86411852 27.30666667-260.68764445 82.04136296-6.43223703 3.39816297-12.50038518 5.09724445-18.56853333 5.09724445-9.70903703 0-18.20444445-3.51952592-25.2434963-10.67994075-7.03905185-7.03905185-10.67994075-15.65582222-10.67994075-25.2434963V274.97813333c0-11.89357037 5.82542222-22.33078518 17.35490372-30.94755555 7.88859259-5.21860741 22.69487408-13.22856297 44.41884444-24.15122963 88.35223703-44.9042963 167.23816297-67.47780741 236.65777777-67.4778074 40.04977778 0 77.55093333 5.46133333 112.38210371 16.26263703 34.83117037 10.92266667 75.85185185 27.30666667 123.06204444 49.39472592 14.19946667 7.03905185 30.70482963 10.67994075 49.39472592 10.67994075 20.26761482 0 42.23431111-3.88361482 66.02145186-11.77220742 23.78714075-7.88859259 44.41884445-16.62672592 61.77374814-26.33576295 17.3549037-9.70903703 33.86026667-18.56853333 49.39472593-26.33576297 15.53445925-7.88859259 25.72894815-11.77220741 30.58346667-11.77220741 9.70903703 0 18.20444445 3.51952592 25.2434963 10.67994075 7.28177778 7.03905185 10.8013037 15.4130963 10.8013037 25.2434963z" p-id="1151"></path></svg>