<?xml version="1.0" standalone="no"?><!DOCTYPE svg PUBLIC "-//W3C//DTD SVG 1.1//EN" "http://www.w3.org/Graphics/SVG/1.1/DTD/svg11.dtd"><svg t="1572593177011" class="icon" viewBox="0 0 1024 1024" version="1.1" xmlns="http://www.w3.org/2000/svg" p-id="2443" xmlns:xlink="http://www.w3.org/1999/xlink" width="64" height="64"><defs><style type="text/css"></style></defs><path d="M517.82542222 8.10097778c-278.2920704 0-503.89902222 225.60695182-503.89902222 503.89902222 0 278.28624498 225.60695182 503.89902222 503.89902222 503.89902222 278.28624498 0 503.89902222-225.61277725 503.89902223-503.89902222C1021.72444445 233.7079296 796.1116672 8.10097778 517.82542222 8.10097778zM538.13284409 809.59751965c-10.36342613 9.50126365-22.45117725 14.68588942-37.14289209 14.68588942-14.68588942 0-26.77946595-5.1904512-37.14289209-14.68588942-10.36342613-10.36342613-14.68588942-22.45700267-14.68588942-37.14871752 0-14.680064 4.31663787-26.78529138 14.68588942-36.27490418 10.36925155-10.36342613 22.45700267-14.68588942 37.14289209-14.68588942 14.68588942 0 27.64162845 4.32246329 38.00505458 14.68588942 9.50126365 9.4896128 14.68588942 21.59484018 14.68588942 36.27490418C553.680896 788.00267947 548.50209565 800.096256 538.13284409 809.59751965zM662.52891022 464.06260053c-8.63327573 10.36342613-31.96409173 32.82625422-69.97497173 66.51467094-19.00252729 16.40438898-31.95826631 31.95826631-40.59736747 47.51214364-11.23141405 19.00252729-16.41603982 39.72937955-16.41603982 63.05437014l0 19.87634062L466.4393728 661.02012587l0-19.87634062c0-28.50379093 5.18462578-53.55310649 15.54805191-75.14794667 12.09357653-25.91730347 40.60319289-58.74355769 87.25317404-100.20891307 13.81790151-13.81790151 24.18715307-24.18715307 29.36595343-31.09610382 17.27820231-21.59484018 25.91147805-44.05766827 25.91147804-68.24482134 0-34.5505792-10.35760071-61.33004515-29.36595342-80.33257244-19.86468978-20.73267769-48.38013155-30.22811591-84.65503573-30.22811591-43.18968035 0-75.14794667 13.81790151-95.88062436 42.32751787-19.00835271 24.18715307-28.50961635 57.01340729-28.50961636 99.34092515L317.8561536 397.55375502c0-60.46788267 16.41603982-108.8421888 50.96661902-145.11709297 34.55640462-38.01088 82.92488533-57.01923271 145.1229184-57.01923272 55.28908231 0 99.34092515 14.68588942 133.03516729 45.77616782 31.95826631 29.37177885 48.37430613 69.97497173 48.37430614 121.79792783C695.35516445 401.86456747 684.1237504 435.55298418 662.52891022 464.06260053z" p-id="2444"></path></svg>