<?xml version="1.0" standalone="no"?><!DOCTYPE svg PUBLIC "-//W3C//DTD SVG 1.1//EN" "http://www.w3.org/Graphics/SVG/1.1/DTD/svg11.dtd"><svg t="1572593138675" class="icon" viewBox="0 0 1024 1024" version="1.1" xmlns="http://www.w3.org/2000/svg" p-id="1499" xmlns:xlink="http://www.w3.org/1999/xlink" width="64" height="64"><defs><style type="text/css"></style></defs><path d="M665.840376 438.28482a139.017214 139.017214 0 0 0-8.212833-15.023474c-2.804382-4.607199-5.809077-9.014085-9.014084-13.42097a149.43349 149.43349 0 0 0-16.02504-18.629108 182.485133 182.485133 0 0 0-40.062597-29.44601c-5.608764-3.004695-11.818466-5.809077-17.026604-8.012519l-3.405321-1.201878-3.004695-1.001565h-2.403756a60.093897 60.093897 0 0 0-8.01252-2.604069 104.56338 104.56338 0 0 0-11.41784-2.804382l-6.410016-2.203443a82.929577 82.929577 0 0 0-12.820031-1.602504 98.153365 98.153365 0 0 0-15.223787-1.802817h-17.627543a88.137715 88.137715 0 0 0-9.014085 1.001565 112.375587 112.375587 0 0 0-12.820031 2.403756 169.665102 169.665102 0 0 0-126.798122 123.99374v2.604069l-1.201878 4.807512a130.203443 130.203443 0 0 0-2.403756 16.425665V510.197183a168.062598 168.062598 0 0 0 34.053208 102.159625 175.073552 175.073552 0 0 0 15.824727 18.228482 196.707355 196.707355 0 0 0 18.629107 16.225352c4.406886 3.205008 9.014085 6.209703 13.420971 9.014084s9.615023 5.408451 14.823161 8.01252a170.666667 170.666667 0 0 0 226.153365-225.552426z m-153.840376 208.325509a133.408451 133.408451 0 0 1-58.29108-13.220658c-3.805947-2.00313-7.812207-4.00626-11.618153-6.410015a108.369327 108.369327 0 0 1-10.616589-7.010955 167.061033 167.061033 0 0 1-14.823161-12.820031 148.832551 148.832551 0 0 1-12.820031-14.622848 133.608764 133.608764 0 0 1-26.641628-80.125196v-9.214398a30.447574 30.447574 0 0 1 0-4.807511c0-4.607199 1.001565-9.014085 1.802817-13.420971l1.602504-6.209702a134.00939 134.00939 0 0 1 100.156495-97.752739 63.298905 63.298905 0 0 1 9.615023-1.802817h21.032864a88.338028 88.338028 0 0 1 12.018779 0 54.885759 54.885759 0 0 1 10.01565 1.402191H540.84507l10.215963 2.403756 4.206573 1.402191 8.613458 3.004695c4.607199 2.00313 9.014085 4.00626 13.020344 6.209702a135.812207 135.812207 0 0 1 31.248827 23.43662 100.156495 100.156495 0 0 1 12.419405 14.422535c2.604069 3.405321 5.208138 7.211268 7.411581 10.616589s4.206573 7.411581 6.209702 11.618153a134.810642 134.810642 0 0 1-121.389671 193.101722z" p-id="1500"></path><path d="M512 246.184664A266.416275 266.416275 0 0 0 260.406886 596.532081a254.597809 254.597809 0 0 0 166.86072 167.461659 280.438185 280.438185 0 0 0 85.533646 13.42097 263.411581 263.411581 0 0 0 156.84507-51.280125 265.615023 265.615023 0 0 0-156.644757-480.751173z m-74.316119 480.751173a216.938967 216.938967 0 0 1-141.821596-142.222222 231.161189 231.161189 0 0 1 32.85133-207.72457 226.954617 226.954617 0 1 1 108.970266 349.946792z m74.316119-480.751173A266.416275 266.416275 0 0 0 260.406886 596.532081a254.597809 254.597809 0 0 0 166.86072 167.461659 280.438185 280.438185 0 0 0 85.533646 13.42097 263.411581 263.411581 0 0 0 156.84507-51.280125 265.615023 265.615023 0 0 0-156.644757-480.751173z m-74.316119 480.751173a216.938967 216.938967 0 0 1-141.821596-142.222222 231.161189 231.161189 0 0 1 32.85133-207.72457 226.954617 226.954617 0 1 1 108.970266 349.946792z m74.316119-480.751173A266.416275 266.416275 0 0 0 260.406886 596.532081a254.597809 254.597809 0 0 0 166.86072 167.461659 280.438185 280.438185 0 0 0 85.533646 13.42097 263.411581 263.411581 0 0 0 156.84507-51.280125 265.615023 265.615023 0 0 0-156.644757-480.751173z m-74.316119 480.751173a216.938967 216.938967 0 0 1-141.821596-142.222222 231.161189 231.161189 0 0 1 32.85133-207.72457 226.954617 226.954617 0 1 1 108.970266 349.946792z" p-id="1501"></path><path d="M1024 625.777778V398.021909h-91.342723a409.239437 409.239437 0 0 0-42.666667-103.361502l63.699531-63.298905-160.250391-162.654147-64.30047 64.901409a433.076682 433.076682 0 0 0-103.361502-42.666667V0H398.021909v90.942097a421.859155 421.859155 0 0 0-103.161189 42.666667l-64.30047-64.30047-160.250391 161.251956 64.500783 64.100157a409.239437 409.239437 0 0 0-42.666667 103.361502H0v227.755869h91.14241a408.037559 408.037559 0 0 0 42.666667 103.161189l-64.100157 64.100157 160.250391 161.452269 64.30047-64.500783a417.251956 417.251956 0 0 0 103.161189 42.666667v91.342723h228.356808v-91.342723a413.646322 413.646322 0 0 0 103.161189-42.666667l64.500783 63.499218 160.250391-160.250391-64.100157-64.701096a412.444444 412.444444 0 0 0 42.666667-103.361502z m-125.395931-21.233177A378.992175 378.992175 0 0 1 849.527387 721.126761l-8.01252 13.020344 58.491393 59.092332-106.967136 105.965571-36.85759-36.657277-11.017215-10.816902-5.608763-5.208137h-16.02504l-4.006259 4.206572a390.810642 390.810642 0 0 1-117.383412 48.075118l-14.622848 3.405321v83.330203h-151.236307v-82.929577l-14.622848-3.405321a395.618153 395.618153 0 0 1-120.187793-49.477308l-13.020345-8.01252-58.491393 58.29108-106.165884-106.766823 58.491393-58.691706-8.01252-13.42097a380.594679 380.594679 0 0 1-49.677621-120.187794l-3.205008-14.622848H38.460094v-150.034429h82.929577l3.205008-15.624413a380.594679 380.594679 0 0 1 49.677621-120.187793l8.01252-13.020345-58.691706-57.089202 106.967136-106.967136 58.491393 58.892019 13.020344-8.212833a386.403756 386.403756 0 0 1 117.183099-49.076682h17.026604V38.460094h151.236307v82.729264l14.823161 3.405321a390.610329 390.610329 0 0 1 120.187793 49.477308l12.820032 7.812207 59.092332-58.691706 105.965571 107.968701L841.314554 289.051643l8.01252 13.020344a380.594679 380.594679 0 0 1 49.677621 120.187794l3.205008 14.823161h83.330203v151.236307h-86.935837z" p-id="1502"></path></svg>