<?xml version="1.0" standalone="no"?><!DOCTYPE svg PUBLIC "-//W3C//DTD SVG 1.1//EN" "http://www.w3.org/Graphics/SVG/1.1/DTD/svg11.dtd"><svg t="1572593193439" class="icon" viewBox="0 0 1024 1024" version="1.1" xmlns="http://www.w3.org/2000/svg" p-id="2840" xmlns:xlink="http://www.w3.org/1999/xlink" width="64" height="64"><defs><style type="text/css"></style></defs><path d="M513 3.5C232.043 3.5 4.25 231.293 4.25 512.25S232.043 1021 513 1021s508.75-227.793 508.75-508.75C1021.75 231.229 793.957 3.5 513 3.5zM618.629 627.481c15.708-11.892 35.295-19.014 56.535-19.014 51.893 0 93.991 42.035 93.991 94.055 0 51.893-42.035 94.055-93.991 94.055-51.829 0-93.928-42.099-93.928-94.055l0-0.063L341.551 586.592c-14.69 9.475-32.115 15.071-50.875 15.071-51.892 0-93.992-42.099-93.992-93.992 0-51.892 42.1-93.991 93.992-93.991 22.131 0 42.417 7.695 58.506 20.478l231.991-112.052 0-0.064c0-51.893 42.099-93.992 93.928-93.992 51.893 0 94.055 42.036 94.055 93.992 0 51.957-42.099 93.992-94.055 93.992-21.24 0-40.764-7.123-56.535-19.014L384.541 510.088l-0.19 4.261L618.629 627.481z" p-id="2841"></path></svg>