<?xml version="1.0" standalone="no"?><!DOCTYPE svg PUBLIC "-//W3C//DTD SVG 1.1//EN" "http://www.w3.org/Graphics/SVG/1.1/DTD/svg11.dtd"><svg t="1586163241573" class="icon" viewBox="0 0 1024 1024" version="1.1" xmlns="http://www.w3.org/2000/svg" p-id="3506" xmlns:xlink="http://www.w3.org/1999/xlink" width="32" height="32"><defs><style type="text/css"></style></defs><path d="M512 0a512 512 0 1 0 512 512A512 512 0 0 0 512 0z m0 938.666667a426.666667 426.666667 0 1 1 426.666667-426.666667 426.666667 426.666667 0 0 1-426.666667 426.666667z" p-id="3507"></path><path d="M746.666667 469.333333a42.666667 42.666667 0 0 0-42.666667 42.666667 192 192 0 0 1-384 0 42.666667 42.666667 0 0 0-85.333333 0 277.333333 277.333333 0 0 0 554.666666 0 42.666667 42.666667 0 0 0-42.666666-42.666667zM629.333333 378.026667a50.346667 50.346667 0 1 0-50.346666-50.346667 50.346667 50.346667 0 0 0 50.346666 50.346667zM394.666667 378.026667a50.346667 50.346667 0 1 0-50.346667-50.346667 50.346667 50.346667 0 0 0 50.346667 50.346667z" p-id="3508"></path></svg>