<?xml version="1.0" standalone="no"?><!DOCTYPE svg PUBLIC "-//W3C//DTD SVG 1.1//EN" "http://www.w3.org/Graphics/SVG/1.1/DTD/svg11.dtd"><svg t="1572593167795" class="icon" viewBox="0 0 1024 1024" version="1.1" xmlns="http://www.w3.org/2000/svg" p-id="2178" xmlns:xlink="http://www.w3.org/1999/xlink" width="64" height="64"><defs><style type="text/css"></style></defs><path d="M949.14939259 672.19911111v-4.00497778c0-7.76722963 4.85451852-14.32082963 11.52948149-18.32580741 6.79632592-4.00497778 11.40811852-11.40811852 11.40811851-19.78216295v-504.86992594c0-12.62174815-10.31585185-22.9376-22.9376-22.9376h-734.24592592c-8.37404445 0-15.77718518 4.61179259-19.78216297 11.40811852-4.00497778 6.79632592-10.43721482 11.52948148-18.3258074 11.52948148h-4.00497778c-15.4130963 0-26.57848889-16.01991111-19.78216297-29.85528888 11.16539259-23.05896297 34.70980741-38.95751111 62.01647408-38.95751112h734.24592592c37.98660741 0 68.8128 30.82619259 68.8128 68.8128v504.74856297c0 27.1853037-15.89854815 50.85108148-38.9575111 62.01647408-13.95674075 6.79632592-29.97665185-4.36906667-29.97665186-19.78216297z" p-id="2179"></path><path d="M206.40805925 986.77191111c-3.39816297 0-6.79632592-0.72817778-9.95176295-2.30589629-7.88859259-3.88361482-12.98583703-11.89357037-12.98583705-20.63170371V813.58696297h-105.10032592c-38.59342222 0-69.90506667-31.43300741-69.90506666-69.90506667V264.05546667c0-38.59342222 31.31164445-69.90506667 69.90506666-69.90506667h731.94002964c38.59342222 0 69.90506667 31.43300741 69.90506666 69.90506667v479.62642963c0 38.59342222-31.31164445 69.90506667-69.90506666 69.90506667h-377.43881482L220.60752592 981.79602963c-4.12634075 3.2768-9.10222222 4.97588148-14.19946667 4.97588148zM78.37013333 239.90423703c-13.22856297 0-24.02986667 10.8013037-24.02986666 24.02986667v479.62642963c0 13.22856297 10.8013037 24.02986667 24.02986666 24.02986667h128.03792592c12.62174815 0 22.9376 10.31585185 22.9376 22.9376v125.73202963l181.19490372-143.69374815c4.00497778-3.2768 9.10222222-4.97588148 14.19946666-4.97588148h385.57013334c13.22856297 0 24.02986667-10.8013037 24.02986666-24.02986667V264.05546667c0-13.22856297-10.8013037-24.02986667-24.02986666-24.02986667H78.37013333z" p-id="2180"></path></svg>