<?xml version="1.0" standalone="no"?><!DOCTYPE svg PUBLIC "-//W3C//DTD SVG 1.1//EN" "http://www.w3.org/Graphics/SVG/1.1/DTD/svg11.dtd"><svg t="1572593161018" class="icon" viewBox="0 0 1024 1024" version="1.1" xmlns="http://www.w3.org/2000/svg" p-id="2040" xmlns:xlink="http://www.w3.org/1999/xlink" width="64" height="64"><defs><style type="text/css"></style></defs><path d="M736.02844445 376.832H303.90044445c-22.64177778 0-41.07377778 18.54577778-41.07377778 41.07377778 0 22.64177778 18.54577778 41.07377778 41.07377778 41.07377777h432.01422222c22.64177778 0 41.07377778-18.54577778 41.07377778-41.07377777 0.11377778-22.528-18.432-41.07377778-40.96-41.07377778zM297.07377778 642.95822222h432.01422222c22.64177778 0 41.07377778-18.54577778 41.07377778-41.07377777 0-22.64177778-18.54577778-41.07377778-41.07377778-41.07377778H297.07377778c-22.64177778 0-41.07377778 18.54577778-41.07377778 41.07377778s18.54577778 41.07377778 41.07377778 41.07377777zM729.20177778 744.56177778H297.07377778c-22.64177778 0-41.07377778 18.54577778-41.07377778 41.07377777 0 22.64177778 18.54577778 41.07377778 41.07377778 41.07377778h432.01422222c22.64177778 0 41.07377778-18.54577778 41.07377778-41.07377778 0.11377778-22.528-18.432-41.07377778-40.96-41.07377777z" p-id="2041"></path><path d="M827.96088889 2.50311111H415.06133333v0.56888889c-13.42577778-2.048-27.07911111 1.93422222-37.43288888 11.37777778L126.74844445 244.96355555c-10.92266667 10.01244445-15.70133333 24.34844445-13.53955556 38.34311112h-0.56888889v651.49155555c0 47.78666667 38.45688889 86.69866667 85.67466667 86.69866667h629.64622222c47.21777778 0 85.67466667-38.912 85.67466666-86.69866667V89.20177778c0-47.78666667-38.45688889-86.69866667-85.67466666-86.69866667zM151.09688889 279.09688889c-0.68266667-1.59288889-1.25155555-4.55111111 1.59288889-7.168L403.68355555 41.30133333c1.47911111-1.36533333 3.072-1.82044445 4.43733334-1.82044444 1.13777778 0 2.16177778 0.34133333 2.84444444 0.56888889 1.47911111 0.68266667 4.096 2.27555555 4.096 6.03022222V276.48c0 3.64088889-3.072 6.71288889-6.82666666 6.71288889H157.35466667c-3.98222222 0.11377778-5.57511111-2.50311111-6.25777778-4.096z m713.38666666 655.70133333c0 20.36622222-16.384 36.97777778-36.52266666 36.97777778H198.31466667c-20.13866667 0-36.52266667-16.61155555-36.52266667-36.97777778V341.67466667c0-11.83288889 9.55733333-21.39022222 21.39022222-21.39022222h225.05244445c24.68977778 0 44.82844445-19.56977778 44.82844444-43.69066667V73.61422222c0-11.83288889 9.55733333-21.39022222 21.39022222-21.39022222h353.50755556c20.13866667 0 36.52266667 16.61155555 36.52266666 36.97777778v845.59644444z" p-id="2042"></path></svg>